HIERARCHY
ROOT Hips
{
	OFFSET -0.179506 -22.333345 2.821913
	CHANNELS 6 Xposition Yposition Zposition Zrotation Yrotation Xrotation 
	JOINT LeftUpLeg
	{
		OFFSET 6.951974 -9.140623 -0.681533
		CHANNELS 3 Zrotation Yrotation Xrotation
		JOINT LeftLeg
		{
			OFFSET 3.427654 -37.519855 -0.449580
			CHANNELS 3 Zrotation Yrotation Xrotation
			JOINT LeftFoot
			{
				OFFSET -1.359570 -39.796059 -4.369333
				CHANNELS 3 Zrotation Yrotation Xrotation
				JOINT LeftToe
				{
					OFFSET 2.635814 -5.579078 11.928840
					CHANNELS 3 Zrotation Yrotation Xrotation
					End Site
					{
						OFFSET 0.000000 0.000000 0.000000
					}
				}
			}
		}
	}
	JOINT RightUpLeg
	{
		OFFSET -6.767048 -9.052170 -0.431982
		CHANNELS 3 Zrotation Yrotation Xrotation
		JOINT RightLeg
		{
			OFFSET -3.829005 -38.256897 -0.885003
			CHANNELS 3 Zrotation Yrotation Xrotation
			JOINT RightFoot
			{
				OFFSET 1.577377 -39.841461 -4.231180
				CHANNELS 3 Zrotation Yrotation Xrotation
				JOINT RightToe
				{
					OFFSET -2.537174 -4.814398 12.334795
					CHANNELS 3 Zrotation Yrotation Xrotation
					End Site
					{
						OFFSET 0.000000 0.000000 0.000000
					}
				}
			}
		}
	}
	JOINT Spine
	{
		OFFSET -0.253288 10.896323 -2.669631
		CHANNELS 3 Zrotation Yrotation Xrotation
		JOINT Spine1
		{
			OFFSET 0.548704 13.518043 0.109247
			CHANNELS 3 Zrotation Yrotation Xrotation
			JOINT Spine2
			{
				OFFSET 0.145701 5.292222 2.542457
				CHANNELS 3 Zrotation Yrotation Xrotation
				JOINT Neck
				{
					OFFSET -0.277840 21.387037 -4.285703
					CHANNELS 3 Zrotation Yrotation Xrotation
					JOINT Head
					{
						OFFSET 0.515184 6.496960 5.134897
						CHANNELS 3 Zrotation Yrotation Xrotation
						End Site
						{
							OFFSET 0.000000 0.000000 0.000000
						}
					}
				}
				JOINT LeftShoulder
				{
					OFFSET 7.884473 12.174932 -3.408961
					CHANNELS 3 Zrotation Yrotation Xrotation
					JOINT LeftArm
					{
						OFFSET 9.097692 3.046888 -0.886815
						CHANNELS 3 Zrotation Yrotation Xrotation
						JOINT LeftForeArm
						{
							OFFSET 25.961220 -1.277207 -2.745643
							CHANNELS 3 Zrotation Yrotation Xrotation
							JOINT LeftHand
							{
								OFFSET 24.923361 0.898606 -0.117091
								CHANNELS 3 Zrotation Yrotation Xrotation
								End Site
								{
									OFFSET 0.000000 0.000000 0.000000
								}
							}
						}
					}
				}
				JOINT RightShoulder
				{
					OFFSET -8.175920 11.883285 -3.861528
					CHANNELS 3 Zrotation Yrotation Xrotation
					JOINT RightArm
					{
						OFFSET -9.601238 3.255117 -0.914307
						CHANNELS 3 Zrotation Yrotation Xrotation
						JOINT RightForeArm
						{
							OFFSET -25.374195 -1.332924 -2.140099
							CHANNELS 3 Zrotation Yrotation Xrotation
							JOINT RightHand
							{
								OFFSET -25.529810 0.777228 -0.555919
								CHANNELS 3 Zrotation Yrotation Xrotation
								End Site
								{
									OFFSET 0.000000 0.000000 0.000000
								}
							}
						}
					}
				}
			}
		}
	}
}
MOTION
Frames: 13
Frame Time: 0.033333
-18.724451 40.455025 90.251892 -134.339667 5.396879 90.337886 -3.819678 4.915557 21.325070 -6.357424 -3.010345 62.296910 -5.334573 11.368467 -3.070404 nan nan nan 2.922042 14.558022 -36.786954 -0.151840 -7.475735 29.796703 7.031110 -3.377883 -7.061707 nan nan nan 6.036019 -14.459687 15.506769 4.378642 -0.729790 4.578512 2.087392 -2.802179 -5.360017 -2.753239 5.377233 -3.780231 -2.465493 10.790903 -12.016872 -22.938277 -14.520361 1.732068 -37.487597 -18.063041 9.410563 43.540782 -57.866508 -50.497379 -30.532391 -9.613792 -47.362062 20.347494 15.575966 -1.925858 29.705423 27.051505 16.293688 -20.956994 73.826514 -22.166503 18.674396 -1.322898 -44.230012 
-21.114458 42.495049 89.596954 -134.345028 5.138805 90.056316 -3.597808 4.558766 19.072448 -4.042416 0.339477 67.592342 -3.857685 12.470966 -4.844430 nan nan nan 3.440558 13.012399 -35.846188 0.210050 -7.041091 31.565288 5.552407 -2.042552 -3.154728 nan nan nan 6.355757 -13.163492 16.220055 4.209953 -0.962927 4.049455 1.734050 -2.482000 -5.325118 -3.413869 4.182625 -3.682984 -1.979697 10.536149 -12.463492 -22.474667 -15.532820 1.248460 -37.716177 -18.616263 9.479944 43.182753 -56.942254 -51.256984 -30.431446 -8.054914 -44.903299 19.523919 15.818162 -2.299427 29.586726 27.303571 16.205909 -22.751279 73.439708 -24.991062 18.141840 -2.776131 -42.697827 
-22.997637 44.750034 88.690971 -134.506129 5.056143 90.276457 -2.245811 4.123671 15.650917 -2.606165 3.132433 73.642594 -1.525285 13.261159 -6.421304 nan nan nan 4.254251 12.108932 -36.589726 1.554184 -4.841513 34.053310 2.646245 -3.569880 2.330496 nan nan nan 6.082991 -11.574825 16.675687 3.985113 -0.992459 3.285010 2.023291 -2.562656 -4.815237 -4.146283 2.844386 -4.173062 -0.840910 10.976320 -12.594453 -22.328411 -16.476513 1.076112 -36.629327 -18.891936 7.809936 42.190230 -57.697517 -50.445419 -27.746001 -6.948901 -48.374718 19.378433 16.998180 -2.089879 28.429270 27.397230 14.634231 -21.969794 73.562644 -24.652098 14.995255 -3.296875 -45.564372 
-25.245132 46.906200 87.811028 -134.675524 4.526102 89.951477 -2.185332 3.569134 12.983169 -1.759897 5.087957 78.916042 0.481033 14.826736 -7.949918 nan nan nan 4.310215 10.934166 -37.148311 4.251340 -2.448400 39.126466 -0.670710 -5.168963 -0.053510 nan nan nan 5.922477 -10.394301 17.237180 3.688552 -0.845090 2.973248 1.725775 -2.469906 -4.330657 -4.571962 1.900193 -4.776900 -0.248685 10.836296 -12.833539 -22.461608 -17.368067 0.511061 -35.779776 -19.478431 7.557212 42.357348 -57.717200 -52.077916 -25.760004 -4.414361 -51.721526 19.351929 17.915402 -2.078948 26.853291 27.617621 13.743176 -23.815959 73.388012 -26.950349 14.701949 -5.103765 -45.003192 
-27.326931 48.973068 86.980255 -134.692525 4.045373 89.527576 -2.247599 2.316619 9.874582 -0.920620 6.936528 84.490069 1.237495 15.803562 -9.734549 nan nan nan 4.209762 10.776829 -37.288113 4.842056 -2.562163 44.534291 -0.343854 -5.456311 -5.582900 nan nan nan 5.444585 -9.537189 18.899546 3.495878 -0.430307 1.494882 1.586410 -2.175138 -3.501295 -4.556276 1.608735 -5.903399 -0.082270 10.069788 -12.653605 -22.676049 -18.194726 -0.302105 -34.928514 -20.177809 7.463356 42.373268 -57.359531 -53.442181 -25.502417 -3.448070 -53.300863 19.098730 18.726435 -2.532713 25.598827 27.633283 13.256639 -26.224233 73.189615 -29.422284 14.809745 -5.935035 -44.445095 
-29.548481 50.950485 86.354446 -134.482207 3.815484 88.993043 -2.253149 0.385250 6.667206 -0.208376 8.672756 89.745390 1.087060 15.927614 -11.448005 nan nan nan 2.887761 11.685349 -36.784751 3.641152 -6.106369 49.118893 2.375639 -2.761088 -10.758139 nan nan nan 5.685691 -8.191838 20.563162 3.635929 -0.642577 0.530451 1.076003 -1.864918 -3.294894 -4.253122 1.896682 -6.330365 -0.535100 8.431486 -13.216172 -23.326636 -19.263500 -1.132208 -34.021817 -20.590276 7.645331 42.149618 -56.361757 -53.875932 -28.160415 -4.469553 -50.795585 18.779773 19.213186 -3.315222 24.582920 27.567538 13.108783 -27.862439 72.895464 -31.426507 14.472600 -5.801059 -44.338873 
-31.688442 52.787498 85.933197 -133.846552 3.913967 88.481849 -1.806599 -2.230484 2.797005 0.008640 10.152686 95.048573 1.197643 15.038518 -12.592876 nan nan nan 1.746519 12.522082 -36.188916 2.585049 -9.282423 53.039132 4.852549 -0.540076 -13.932310 nan nan nan 6.002099 -8.166853 22.797625 3.656157 -0.348268 -0.634183 0.537194 -1.140927 -3.258940 -3.928445 1.886268 -6.862049 -0.974816 7.130615 -13.881376 -23.989195 -19.923044 -1.989007 -33.253327 -21.464912 7.976006 41.852768 -55.208852 -53.228486 -31.087588 -5.015214 -47.333036 18.678074 19.452785 -4.049387 23.666019 27.916170 13.156416 -29.150304 72.267739 -33.248083 13.769763 -5.469531 -44.295742 
-33.734863 54.828308 85.514076 -134.196823 4.322014 88.883051 -0.280974 -3.534125 -2.311768 -0.621220 11.279153 99.737847 2.568390 13.465595 -13.116861 nan nan nan 2.131410 12.587940 -35.647933 4.070345 -9.128983 54.755444 4.506357 -0.868414 -15.705909 nan nan nan 6.436885 -7.090946 22.755027 3.820289 -0.023129 0.265568 0.178031 -0.608391 -3.785258 -4.012460 1.588643 -7.396204 -1.000730 6.386729 -14.592174 -24.789162 -20.645565 -2.293176 -32.064525 -22.304439 7.474753 41.422869 -54.816491 -52.126245 -31.238000 -3.899419 -46.833308 19.235926 20.119678 -3.668007 21.544189 28.330439 11.898501 -29.767975 71.884953 -33.983413 13.520605 -5.505838 -45.594413 
-35.778461 56.965069 85.193085 -134.347174 4.658160 89.031822 1.468479 -4.187284 -7.324360 -1.672018 11.796095 103.592785 3.923811 11.805059 -13.573212 nan nan nan 3.152371 12.293302 -33.445010 5.213019 -8.673146 54.829699 2.687381 -1.400782 -18.119138 nan nan nan 6.497701 -5.708463 23.387808 4.083858 -0.067126 0.296029 0.205307 -0.110803 -4.086654 -4.279704 1.015280 -7.657206 -0.656130 5.923930 -15.256585 -25.256407 -21.301114 -2.481278 -31.277510 -22.844151 7.120506 41.171000 -54.837731 -51.919344 -28.721842 -2.030956 -47.553157 19.452286 20.788773 -3.377638 19.858702 28.503413 10.934244 -29.545515 71.779684 -34.757562 10.850030 -6.352124 -47.363397 
-37.939404 59.094234 84.976952 -134.142912 4.559662 88.785040 2.411628 -4.421809 -11.833920 -2.663902 11.592237 106.557632 5.003687 10.265332 -14.452095 nan nan nan 4.239211 10.873857 -30.132037 5.941999 -7.500262 54.434528 0.664742 -1.767480 -21.096633 nan nan nan 6.243764 -4.495039 24.518119 4.040001 -0.385035 -0.071519 0.408557 0.389258 -4.270530 -4.565878 0.383732 -7.962647 -0.027939 5.437914 -15.574134 -25.118174 -21.626700 -3.023765 -31.207443 -23.464528 6.890046 40.539848 -55.170649 -51.557113 -24.585805 0.178715 -49.151760 19.197299 21.306205 -3.219692 18.925717 28.645225 9.936247 -28.372018 71.729439 -35.094397 6.663047 -7.689603 -49.317199 
-40.299683 61.205147 84.825897 -133.648868 4.088748 88.465160 2.513535 -4.829991 -16.072024 -3.302458 11.228045 108.656099 5.785999 8.821524 -15.686459 nan nan nan 4.827006 8.651565 -26.736785 6.088705 -6.071114 54.303296 -0.076594 -1.089471 -23.871947 nan nan nan 5.991901 -3.544502 25.271726 3.751776 -0.877676 0.143624 0.553198 0.855973 -4.804552 -4.972300 -0.172040 -8.032564 0.631144 4.798786 -15.672497 -24.614538 -21.871200 -3.751344 -31.802924 -23.979685 6.407554 39.345319 -55.397443 -49.753575 -24.115202 0.522929 -50.673484 18.660497 21.882919 -2.815265 18.485515 28.497591 8.246133 -27.878797 71.095062 -34.297504 7.132529 -7.795478 -49.521860 
-42.630371 63.405518 84.717194 -132.855884 3.598276 88.309082 2.765080 -5.736376 -20.468358 -3.976383 11.243685 110.117540 6.622122 7.549194 -16.943971 nan nan nan 5.267142 6.917897 -23.439511 6.425620 -4.698473 53.833599 -0.359583 -1.229244 -26.338616 nan nan nan 5.505429 -2.473431 25.521720 3.742082 -1.353467 0.338534 0.749814 1.130843 -4.949614 -5.201708 -0.780454 -8.496045 1.278021 4.084758 -15.415211 -23.964833 -22.008917 -4.292589 -32.786578 -24.764032 6.011877 37.877217 -55.510282 -47.584358 -26.586404 -0.440031 -52.524312 18.186172 22.166392 -2.647529 18.496104 28.345066 7.024745 -29.136513 69.887900 -33.823239 11.311000 -7.122802 -48.114855 
-44.937080 65.673965 84.656364 -132.025958 3.054766 88.305978 2.944642 -6.720561 -24.899861 -4.453322 11.286424 110.902258 7.319971 6.672165 -18.169224 nan nan nan 5.684540 5.530568 -20.214373 6.843940 -3.281447 53.118302 -0.987802 -2.279884 -28.679563 nan nan nan 4.996640 -1.144373 25.377929 3.759492 -1.694944 0.333904 0.902608 1.141243 -4.646459 -5.132590 -1.416213 -9.191310 1.860719 3.124233 -15.012375 -23.314676 -22.228474 -4.572779 -34.042948 -25.623391 5.956421 37.826569 -55.160085 -46.184361 -25.521721 0.263616 -53.062311 17.822515 22.269170 -2.822930 18.930078 28.040785 6.329031 -30.522324 68.879195 -33.963045 12.999458 -6.691456 -48.024038 
